<svg xmlns="http://www.w3.org/2000/svg" viewBox="0 0 48 48" id="welder">
  <path fill="#252551" fill-rule="evenodd" d="m31.06,29.98c-.09.1-.19.2-.28.29-.82.82-1.76,1.5-2.78,2.02v3.33c.69.18,1.32.54,1.83,1.04.75.75,1.17,1.77,1.17,2.83v5h3c.55,0,1-.45,1-1v-6.34c0-2.96-1.53-5.64-3.94-7.18h0Zm-22.12,0c-2.41,1.53-3.94,4.21-3.94,7.18v6.34c0,.55.45,1,1,1h3v-5c0-1.06.42-2.08,1.17-2.83.51-.51,1.14-.87,1.83-1.04v-3.33c-1.02-.52-1.96-1.2-2.78-2.02-.1-.1-.19-.19-.28-.29h0Zm9.06,3.52v2h4v-2h-4Zm-6.93-24.9c-1.45.34-2.59,1.46-2.95,2.9h-1.16c-.78,0-1.54.31-2.09.87-.56.55-.87,1.31-.87,2.09v4.08c0,.78.31,1.54.87,2.09.55.56,1.31.87,2.09.87h1.04v1.02c0,2.38.95,4.66,2.63,6.35s3.97,2.63,6.35,2.63h6.04c2.38,0,4.66-.95,6.35-2.63,1.68-1.68,2.63-3.97,2.63-6.35v-1.02h1.04c.78,0,1.54-.31,2.09-.87.56-.55.87-1.31.87-2.09v-4.08c0-.78-.31-1.54-.87-2.09-.55-.56-1.31-.87-2.09-.87h-1.16c-.36-1.44-1.5-2.56-2.95-2.9-.43-2.89-2.92-5.1-5.93-5.1h-6c-1.59,0-3.12.63-4.24,1.76-.91.91-1.5,2.09-1.69,3.35h0Zm6.93,14.9c.55,0,1,.45,1,1s-.45,1-1,1-1-.45-1-1,.45-1,1-1h0Zm-4,0c.55,0,1,.45,1,1s-.45,1-1,1-1-.45-1-1,.45-1,1-1h0Zm8,0c.55,0,1,.45,1,1s-.45,1-1,1-1-.45-1-1,.45-1,1-1h0Zm4,0c.55,0,1,.45,1,1s-.45,1-1,1-1-.45-1-1,.45-1,1-1h0Zm-15-11v7c0,.55.45,1,1,1h16c.55,0,1-.45,1-1v-7c0-.55-.45-1-1-1h-16c-.55,0-1,.45-1,1h0Z"></path>
  <path fill="#f66" fill-rule="evenodd" d="m15.54,18.5h-1.37l4.29-5h1.37l-4.29,5h0Zm6.92-5h4.54v5h-8.83l4.29-5h0Zm-6.63,0l-2.83,3.3v-3.3h2.83Zm24.17,30c2.21,0,4-1.79,4-4v-7c0-1.66-1.34-3-3-3h-2c-1.66,0-3,1.34-3,3v7c0,2.21,1.79,4,4,4h0Zm-1-18h-1c-.55,0-1,.45-1,1v1.76c.53-.48,1.23-.76,2-.76h2c.77,0,1.47.29,2,.76v-1.76c0-.55-.45-1-1-1h-1v-4.39c0-.67.34-1.3.9-1.67l1.66-1.11c.46-.31.58-.93.28-1.39-.31-.46-.93-.58-1.39-.28,0,0-.86.57-1.66,1.11-1.12.74-1.79,2-1.79,3.34v4.39h0Zm-10.59,12.59c-.12-.13-.26-.23-.41-.32v.73c0,.55-.45,1-1,1h-4c-.55,0-1-.45-1-1v-1h-4v1c0,.55-.45,1-1,1h-4c-.55,0-1-.45-1-1v-.73c-.15.09-.29.19-.41.32-.38.37-.59.88-.59,1.41v5h18v-5c0-.53-.21-1.04-.59-1.41Zm-5.41,5.41h-6c-.55,0-1-.45-1-1s.45-1,1-1h6c.55,0,1,.45,1,1s-.45,1-1,1Zm3-10.42c-.65.18-1.32.31-2,.37v4.05h2v-4.42h0Zm-12,0v4.42h2v-4.05c-.68-.06-1.35-.19-2-.37h0Z"></path>
</svg>
